<svg width="34" height="35" viewBox="0 0 34 35" fill="none" xmlns="http://www.w3.org/2000/svg">
<mask id="mask0_306_2145" style="mask-type:alpha" maskUnits="userSpaceOnUse" x="0" y="0" width="34" height="35">
<rect y="0.5" width="34" height="34" fill="#D9D9D9"/>
</mask>
<g mask="url(#mask0_306_2145)">
<path d="M9.9165 30.25C9.13734 30.25 8.47032 29.9726 7.91546 29.4177C7.3606 28.8628 7.08317 28.1958 7.08317 27.4167V9H5.6665V6.16667H12.7498V4.75H21.2498V6.16667H28.3332V9H26.9165V27.4167C26.9165 28.1958 26.6391 28.8628 26.0842 29.4177C25.5294 29.9726 24.8623 30.25 24.0832 30.25H9.9165ZM24.0832 9H9.9165V27.4167H24.0832V9ZM12.7498 24.5833H15.5832V11.8333H12.7498V24.5833ZM18.4165 24.5833H21.2498V11.8333H18.4165V24.5833Z" fill="#1C1B1F"/>
</g>
</svg>
